<svg xmlns="http://www.w3.org/2000/svg" width="20" height="20" viewBox="0 0 20 20">
  <g id="pin" transform="translate(-200 -434.873)">
    <rect id="Retângulo_617" data-name="Retângulo 617" width="20" height="20" transform="translate(200 434.873)" fill="none"/>
    <path id="Caminho_166" data-name="Caminho 166" d="M8.132,11.725a3.446,3.446,0,0,0,3.452-3.452A3.552,3.552,0,0,0,8.132,4.7,3.446,3.446,0,0,0,4.679,8.149,3.639,3.639,0,0,0,8.132,11.725ZM2.337,2.354a8.2,8.2,0,0,1,11.59,11.59L8.132,19.739,2.337,13.944A8.419,8.419,0,0,1,2.337,2.354Z" transform="translate(201.212 435.134)" fill="#e75c62" fill-rule="evenodd"/>
  </g>
</svg>
