<svg id="Capa_1" enable-background="new 0 0 512 512" height="512" viewBox="0 0 512 512" width="512" xmlns="http://www.w3.org/2000/svg"><g><path d="m407 302c-35.66 0-67.219 17.873-86.205 45.127l-116.132-58.066c3.458-10.4 5.337-21.515 5.337-33.061s-1.879-22.661-5.337-33.061l116.132-58.066c18.986 27.254 50.545 45.127 86.205 45.127 57.897 0 105-47.103 105-105s-47.103-105-105-105-105 47.103-105 105c0 11.546 1.879 22.661 5.337 33.061l-116.132 58.066c-18.986-27.254-50.545-45.127-86.205-45.127-57.897 0-105 47.103-105 105s47.103 105 105 105c35.66 0 67.219-17.873 86.205-45.127l116.132 58.066c-3.458 10.4-5.337 21.515-5.337 33.061 0 57.897 47.103 105 105 105s105-47.103 105-105-47.103-105-105-105zm0-272c41.355 0 75 33.645 75 75s-33.645 75-75 75-75-33.645-75-75 33.645-75 75-75zm-302 301c-41.355 0-75-33.645-75-75s33.645-75 75-75 75 33.645 75 75-33.645 75-75 75zm302 151c-41.355 0-75-33.645-75-75s33.645-75 75-75 75 33.645 75 75-33.645 75-75 75z"/></g></svg>